<svg id="Grupo_3617" data-name="Grupo 3617" xmlns="http://www.w3.org/2000/svg" width="239.793" height="97.319" viewBox="0 0 239.793 97.319">
  <g id="Grupo_3610" data-name="Grupo 3610">
    <g id="Grupo_3607" data-name="Grupo 3607" transform="translate(0.607 70.502)">
      <path id="Trazado_2464" data-name="Trazado 2464" d="M643.526,560.439a2.787,2.787,0,0,1-3.188-.9L638,556.538a2.75,2.75,0,0,0-2.489-.986V558.5c0,1.063.728,1.245,1.7,1.367.106.015.03.516-.092.516h-4.6c-.122,0-.213-.5-.092-.516.775-.107,1.26-.411,1.26-1.367v-6.769c0-1-.531-1.291-1.26-1.488-.121-.03-.045-.531.092-.516a14.436,14.436,0,0,0,1.745.091c1.123,0,2.17-.091,2.9-.091,2.292,0,3.825.941,3.825,2.808a2.711,2.711,0,0,1-2.7,2.7v.077c.607,0,1.048.258,1.716,1.093l2.261,2.838a1.665,1.665,0,0,0,1.26.759C643.647,560,643.617,560.409,643.526,560.439Zm-4.447-7.5a2.228,2.228,0,0,0-2.384-2.428c-.9,0-1.183.364-1.183,1.214v3.126h.44C638.213,554.853,639.079,554.459,639.079,552.941Z" transform="translate(-632.37 -545.893)" fill="#003876"/>
      <path id="Trazado_2465" data-name="Trazado 2465" d="M645.974,559.863c.881-.228,1.564-.365,1.564-1.489v-6.738c0-.972-.622-1.23-1.275-1.4-.122-.03-.046-.531.076-.516,1.108.121,3.02.091,3.946.091,1.381,0,2.383-.061,3.628-.091.364,0,.364.243.288.592l-.364,1.442c-.046.213-.425.213-.486,0-.228-.743-.683-1.169-2.58-1.169-1.063,0-1.412.273-1.412,1.063v2.474c0,.4.2.47.5.47h.334a4.434,4.434,0,0,0,2.914-.682c.152-.138.486-.107.349.2l-.865,1.913c-.121.273-.349.243-.516.015a2.454,2.454,0,0,0-2-.683h-.213c-.3,0-.5.076-.5.47v2.55c0,.866.364,1.185,1.624,1.185,2.292,0,3.2-1.048,3.567-1.624.106-.168.516-.091.516.166,0,.774-.653,2.308-1.609,2.308-.85-.046-1.684-.092-2.959-.092-1.4,0-3.051-.045-4.432.092C645.914,560.424,645.853,559.893,645.974,559.863Z" transform="translate(-632.37 -545.893)" fill="#003876"/>
      <path id="Trazado_2466" data-name="Trazado 2466" d="M661.127,556.31V558.5c0,1.063.728,1.245,1.7,1.367.106.015.03.516-.091.516h-4.6c-.121,0-.212-.5-.091-.516.775-.107,1.26-.411,1.26-1.367v-6.769c0-1-.531-1.291-1.26-1.488-.121-.03-.045-.531.091-.516a14.462,14.462,0,0,0,1.746.091c1.123,0,2.064-.091,2.838-.091,2.353,0,4.3.865,4.3,3.248C667.016,555.673,664.481,556.811,661.127,556.31Zm0-4.583v3.84c2.58.364,3.931-.258,3.931-2.246a2.582,2.582,0,0,0-2.717-2.808C661.385,550.513,661.127,550.846,661.127,551.727Z" transform="translate(-632.37 -545.893)" fill="#003876"/>
      <path id="Trazado_2467" data-name="Trazado 2467" d="M671.3,556.4v-4.766a1.2,1.2,0,0,0-1.229-1.366c-.122-.016-.031-.517.09-.517h4.144c.121,0,.213.5.091.517a1.2,1.2,0,0,0-1.214,1.366v4.842c0,2.124,1.229,3.111,2.838,3.111A2.811,2.811,0,0,0,679,556.478v-4.842c0-.987-.562-1.261-1.3-1.366-.106-.016-.03-.517.091-.517H681.2c.107,0,.2.5.076.517a1.2,1.2,0,0,0-1.214,1.366v4.75a3.924,3.924,0,0,1-4.22,4.235C673.7,560.621,671.3,559.482,671.3,556.4Zm4.462-10.428c.274-.4,1.549.774,1.184,1.047l-1.988,1.5c-.2.151-.729-.334-.577-.546Z" transform="translate(-632.37 -545.893)" fill="#003876"/>
      <path id="Trazado_2468" data-name="Trazado 2468" d="M693.436,557.313c0,1.881-1.716,3.1-4.25,3.1-.729,0-1.579-.092-2.7-.092a21.686,21.686,0,0,0-2.383.092c-.136.015-.213-.516-.091-.546.88-.228,1.563-.365,1.563-1.489v-6.738c0-.972-.622-1.23-1.275-1.4-.121-.03-.045-.531.076-.516a16.262,16.262,0,0,0,1.837.091c1.214,0,2.109-.091,2.777-.091,1.958,0,3.567.82,3.582,2.49a2.283,2.283,0,0,1-1.912,2.291v.091A2.7,2.7,0,0,1,693.436,557.313Zm-6.041-5.677v2.7h1.563a1.536,1.536,0,0,0,1.73-1.715,2,2,0,0,0-2.215-2.109C687.668,550.513,687.4,550.786,687.4,551.636Zm4.083,6.01a2.374,2.374,0,0,0-2.52-2.55H687.4v3.278c0,.835.425,1.246,1.745,1.246C690.476,559.62,691.478,559.224,691.478,557.646Z" transform="translate(-632.37 -545.893)" fill="#003876"/>
      <path id="Trazado_2469" data-name="Trazado 2469" d="M696.339,559.863c.881-.228,1.564-.365,1.564-1.489v-6.738c0-1.063-.622-1.276-1.275-1.366-.121-.016-.03-.517.076-.517h4.189c.106,0,.182.5.076.517a1.2,1.2,0,0,0-1.245,1.366v6.738c0,.866.365,1.185,1.625,1.185,2.292,0,3.2-1.048,3.566-1.624.107-.168.516-.091.516.166,0,.774-.652,2.308-1.609,2.308-.85-.046-1.684-.092-2.959-.092-1.4,0-3.051-.045-4.432.092C696.279,560.424,696.218,559.893,696.339,559.863Z" transform="translate(-632.37 -545.893)" fill="#003876"/>
      <path id="Trazado_2470" data-name="Trazado 2470" d="M708.107,559.863c.774-.107,1.26-.411,1.26-1.367v-6.86c0-.957-.486-1.261-1.26-1.366-.122-.016-.031-.517.09-.517h4.16c.121,0,.212.5.09.517-.652.09-1.259.3-1.259,1.366v6.86c0,1.063.607,1.275,1.259,1.367.122.015.031.516-.09.516H708.2C708.076,560.379,707.985,559.878,708.107,559.863Z" transform="translate(-632.37 -545.893)" fill="#003876"/>
      <path id="Trazado_2471" data-name="Trazado 2471" d="M715.653,555.263a5.506,5.506,0,0,1,5.859-5.753c1.76,0,3.278.547,3.1,1.078l-.2.592c-.547,1.624-1.139-.455-3.84-.455-2.171,0-3.234,1.411-3.234,3.6a4.6,4.6,0,0,0,4.676,4.842,6.286,6.286,0,0,0,2.444-.713c.121-.077.44.273.349.409a5.88,5.88,0,0,1-3.157,1.761C719.1,560.621,715.653,559.134,715.653,555.263Z" transform="translate(-632.37 -545.893)" fill="#003876"/>
      <path id="Trazado_2472" data-name="Trazado 2472" d="M738.668,560.379h-4.007c-.2,0-.213-.486-.045-.516.561-.107,1.168-.3.607-1.61l-.167-.379c-.152-.365-.41-.4-.865-.4h-3.1c-.455,0-.713.03-.865.4l-.152.379c-.531,1.306.046,1.5.774,1.61.2.03.152.516-.045.516h-3.279c-.182,0-.228-.486-.046-.516.623-.107.987-.319,1.549-1.61l2.565-5.889a6.426,6.426,0,0,0,.774-2.535,2.136,2.136,0,0,1,1.108-.227l3.7,8.636c.546,1.291.91,1.533,1.517,1.625C738.911,559.893,738.85,560.379,738.668,560.379Zm-4.235-3.993-1.776-4.25-1.791,4.25c-.091.213.137.243.35.243h2.868C734.3,556.629,734.524,556.6,734.433,556.386Z" transform="translate(-632.37 -545.893)" fill="#003876"/>
      <path id="Trazado_2473" data-name="Trazado 2473" d="M746.021,559.863c.88-.228,1.563-.365,1.563-1.489v-6.738c0-.972-.622-1.23-1.275-1.4-.121-.03-.045-.531.076-.516a15.713,15.713,0,0,0,1.9.091c1.183,0,2.246-.091,3.02-.091,3.673,0,5.661,2.186,5.661,5.115a5.386,5.386,0,0,1-5.676,5.571c-.729,0-1.67-.092-2.793-.092a21.848,21.848,0,0,0-2.383.092C745.96,560.424,745.9,559.893,746.021,559.863Zm9.122-4.16c0-2.9-1.579-5.175-4.31-5.175-1.078,0-1.427.333-1.427,1.108v6.738c0,.82.561,1.23,2.034,1.23C753.914,559.6,755.143,558.268,755.143,555.7Z" transform="translate(-632.37 -545.893)" fill="#003876"/>
      <path id="Trazado_2474" data-name="Trazado 2474" d="M760.263,555.127a5.412,5.412,0,0,1,5.51-5.617,5.311,5.311,0,0,1,5.479,5.48,5.406,5.406,0,0,1-5.51,5.631A5.332,5.332,0,0,1,760.263,555.127Zm9.183.713c0-3.066-2.079-5.3-4.265-5.3-1.336,0-3.1.88-3.1,3.734,0,3.1,2.079,5.312,4.249,5.312C767.67,559.589,769.446,558.709,769.446,555.84Z" transform="translate(-632.37 -545.893)" fill="#003876"/>
      <path id="Trazado_2475" data-name="Trazado 2475" d="M787.772,560.379H783.81c-.106,0-.182-.5-.091-.516a1.134,1.134,0,0,0,1.063-1.367l-.288-5.1-2.46,5.01a8.5,8.5,0,0,0-.607,1.562c-.03.183-.349.274-.592.274a.477.477,0,0,1-.47-.274l-3.506-6.647-.228,5.175c-.046,1.063.577,1.305,1.063,1.367.121.015.03.516-.077.516h-3.142c-.121,0-.212-.5-.091-.516.653-.077,1.2-.3,1.26-1.367l.486-8.712c.015-.259.592-.274.744,0l4.4,8.226,4.084-8.226c.136-.274.743-.259.758,0l.486,8.712c.061,1.063.607,1.29,1.245,1.367C787.969,559.878,787.878,560.379,787.772,560.379Z" transform="translate(-632.37 -545.893)" fill="#003876"/>
      <path id="Trazado_2476" data-name="Trazado 2476" d="M790.889,559.863c.774-.107,1.26-.411,1.26-1.367v-6.86c0-.957-.486-1.261-1.26-1.366-.121-.016-.03-.517.091-.517h4.159c.122,0,.212.5.091.517-.652.09-1.259.3-1.259,1.366v6.86c0,1.063.607,1.275,1.259,1.367.121.015.031.516-.091.516H790.98C790.859,560.379,790.768,559.878,790.889,559.863Z" transform="translate(-632.37 -545.893)" fill="#003876"/>
      <path id="Trazado_2477" data-name="Trazado 2477" d="M807.71,560.242l-7.226-7.56v5.769c0,1.031.608,1.2,1.473,1.412.121.03.061.516-.091.516h-3.6c-.122,0-.213-.471-.076-.516.637-.213,1.244-.334,1.244-1.412v-5.89a3.13,3.13,0,0,0-.561-2.125c-.137-.182-.273-.3-.273-.349a.319.319,0,0,1,.3-.334h1.123a.414.414,0,0,1,.365.137l7.073,7.483v-5.707c0-1.078-.683-1.2-1.473-1.4-.121-.031-.06-.517.092-.517h3.6c.121,0,.2.486.076.517-.668.2-1.245.318-1.245,1.4v5.9a13.011,13.011,0,0,0,.182,2.671c.061.228-.182.288-.425.288A.688.688,0,0,1,807.71,560.242Z" transform="translate(-632.37 -545.893)" fill="#003876"/>
      <path id="Trazado_2478" data-name="Trazado 2478" d="M812.8,559.863c.775-.107,1.26-.411,1.26-1.367v-6.86c0-.957-.485-1.261-1.26-1.366-.121-.016-.03-.517.092-.517h4.158c.122,0,.213.5.092.517-.653.09-1.26.3-1.26,1.366v6.86c0,1.063.607,1.275,1.26,1.367.121.015.03.516-.092.516h-4.158C812.769,560.379,812.678,559.878,812.8,559.863Z" transform="translate(-632.37 -545.893)" fill="#003876"/>
      <path id="Trazado_2479" data-name="Trazado 2479" d="M820.346,555.263a5.5,5.5,0,0,1,5.858-5.753c1.761,0,3.279.547,3.1,1.078l-.2.592c-.547,1.624-1.139-.455-3.84-.455-2.171,0-3.233,1.411-3.233,3.6a4.6,4.6,0,0,0,4.674,4.842,6.277,6.277,0,0,0,2.444-.713c.122-.077.44.273.349.409a5.873,5.873,0,0,1-3.157,1.761C823.791,560.621,820.346,559.134,820.346,555.263Z" transform="translate(-632.37 -545.893)" fill="#003876"/>
      <path id="Trazado_2480" data-name="Trazado 2480" d="M843.361,560.379h-4.008c-.2,0-.212-.486-.045-.516.562-.107,1.169-.3.607-1.61l-.167-.379c-.152-.365-.41-.4-.865-.4h-3.1c-.456,0-.714.03-.865.4l-.152.379c-.532,1.306.045,1.5.774,1.61.2.03.152.516-.046.516H832.22c-.182,0-.228-.486-.046-.516.622-.107.987-.319,1.549-1.61l2.565-5.889a6.426,6.426,0,0,0,.774-2.535,2.136,2.136,0,0,1,1.108-.227l3.7,8.636c.547,1.291.911,1.533,1.518,1.625C843.6,559.893,843.543,560.379,843.361,560.379Zm-4.235-3.993-1.776-4.25-1.791,4.25c-.091.213.137.243.349.243h2.869C838.989,556.629,839.217,556.6,839.126,556.386Z" transform="translate(-632.37 -545.893)" fill="#003876"/>
      <path id="Trazado_2481" data-name="Trazado 2481" d="M855.721,560.242l-7.225-7.56v5.769c0,1.031.607,1.2,1.472,1.412.122.03.061.516-.091.516h-3.6c-.121,0-.212-.471-.076-.516.637-.213,1.245-.334,1.245-1.412v-5.89a3.125,3.125,0,0,0-.562-2.125c-.136-.182-.273-.3-.273-.349a.319.319,0,0,1,.3-.334h1.123a.412.412,0,0,1,.364.137l7.073,7.483v-5.707c0-1.078-.683-1.2-1.472-1.4-.122-.031-.061-.517.091-.517h3.6c.122,0,.2.486.076.517-.668.2-1.244.318-1.244,1.4v5.9a13.011,13.011,0,0,0,.182,2.671c.06.228-.182.288-.425.288A.691.691,0,0,1,855.721,560.242Z" transform="translate(-632.37 -545.893)" fill="#003876"/>
      <path id="Trazado_2482" data-name="Trazado 2482" d="M871.39,560.379h-4.007c-.2,0-.213-.486-.046-.516.562-.107,1.169-.3.607-1.61l-.167-.379c-.152-.365-.41-.4-.865-.4h-3.1c-.456,0-.714.03-.865.4l-.152.379c-.531,1.306.046,1.5.774,1.61.2.03.152.516-.046.516h-3.278c-.182,0-.228-.486-.046-.516.622-.107.987-.319,1.549-1.61l2.565-5.889a6.426,6.426,0,0,0,.774-2.535,2.136,2.136,0,0,1,1.108-.227l3.7,8.636c.547,1.291.911,1.533,1.518,1.625C871.633,559.893,871.572,560.379,871.39,560.379Zm-4.235-3.993-1.776-4.25-1.791,4.25c-.091.213.137.243.349.243h2.869C867.018,556.629,867.246,556.6,867.155,556.386Z" transform="translate(-632.37 -545.893)" fill="#003876"/>
    </g>
    <g id="Grupo_3608" data-name="Grupo 3608" transform="translate(0.735 60.2)">
      <path id="Trazado_2483" data-name="Trazado 2483" d="M632.5,539.521V539.5a3.793,3.793,0,0,1,3.789-3.909A3.98,3.98,0,0,1,639.1,536.6l-.551.647a3.217,3.217,0,0,0-2.3-.863,2.952,2.952,0,0,0-2.871,3.1v.022a2.921,2.921,0,0,0,2.99,3.142,3.559,3.559,0,0,0,2.181-.757v-1.878h-2.3v-.767h3.12v3.012a4.572,4.572,0,0,1-3.033,1.156A3.706,3.706,0,0,1,632.5,539.521Z" transform="translate(-632.497 -535.591)" fill="#003876"/>
      <path id="Trazado_2484" data-name="Trazado 2484" d="M641.991,539.521V539.5a3.854,3.854,0,1,1,7.708-.022c.011.01.011.01,0,.022a3.854,3.854,0,1,1-7.708.021Zm6.823,0V539.5a3,3,0,0,0-2.98-3.12,2.969,2.969,0,0,0-2.958,3.1v.022a3,3,0,0,0,2.98,3.119A2.969,2.969,0,0,0,648.814,539.521Z" transform="translate(-632.497 -535.591)" fill="#003876"/>
      <path id="Trazado_2485" data-name="Trazado 2485" d="M652.533,535.721h3.217a2.78,2.78,0,0,1,1.975.669,1.68,1.68,0,0,1,.486,1.21v.021a1.825,1.825,0,0,1-1.2,1.749c.9.27,1.619.788,1.619,1.824v.022c0,1.3-1.09,2.062-2.742,2.062h-3.357Zm3.076,3.368c1.026,0,1.739-.464,1.739-1.35v-.02c0-.746-.594-1.232-1.674-1.232h-2.3v2.6Zm.3,3.423c1.144,0,1.857-.509,1.857-1.35v-.022c0-.82-.691-1.3-2.009-1.3h-2.385v2.667Z" transform="translate(-632.497 -535.591)" fill="#003876"/>
      <path id="Trazado_2486" data-name="Trazado 2486" d="M661.432,535.721h.853v7.557h-.853Z" transform="translate(-632.497 -535.591)" fill="#003876"/>
      <path id="Trazado_2487" data-name="Trazado 2487" d="M665.526,535.721h5.462v.778h-4.609v2.579H670.5v.777h-4.124V542.5h4.663v.778h-5.516Z" transform="translate(-632.497 -535.591)" fill="#003876"/>
      <path id="Trazado_2488" data-name="Trazado 2488" d="M673.789,535.721h3.25a2.983,2.983,0,0,1,2.148.755,2.088,2.088,0,0,1,.583,1.491v.021a2.212,2.212,0,0,1-2.051,2.2l2.321,3.088h-1.047l-2.192-2.937h-2.159v2.937h-.853Zm3.174,3.854c1.134,0,1.943-.583,1.943-1.555V538c0-.928-.712-1.49-1.932-1.49h-2.332v3.066Z" transform="translate(-632.497 -535.591)" fill="#003876"/>
      <path id="Trazado_2489" data-name="Trazado 2489" d="M682.624,535.721h.8l4.761,6.056v-6.056h.831v7.557h-.68l-4.88-6.2v6.2h-.831Z" transform="translate(-632.497 -535.591)" fill="#003876"/>
      <path id="Trazado_2490" data-name="Trazado 2490" d="M691.848,539.521V539.5a3.854,3.854,0,1,1,7.708-.022c.011.01.011.01,0,.022a3.854,3.854,0,1,1-7.708.021Zm6.823,0V539.5a3,3,0,0,0-2.979-3.12,2.969,2.969,0,0,0-2.958,3.1v.022a3,3,0,0,0,2.979,3.119A2.969,2.969,0,0,0,698.671,539.521Z" transform="translate(-632.497 -535.591)" fill="#003876"/>
      <path id="Trazado_2491" data-name="Trazado 2491" d="M706.657,535.721h2.623a3.767,3.767,0,0,1,4.016,3.757v.022a3.783,3.783,0,0,1-4.016,3.778h-2.623Zm2.623,6.769a2.925,2.925,0,0,0,3.13-2.969V539.5a2.941,2.941,0,0,0-3.13-2.991h-1.771v5.981Z" transform="translate(-632.497 -535.591)" fill="#003876"/>
      <path id="Trazado_2492" data-name="Trazado 2492" d="M716.129,535.721h5.463v.778h-4.61v2.579h4.124v.777h-4.124V542.5h4.664v.778h-5.517Z" transform="translate(-632.497 -535.591)" fill="#003876"/>
      <path id="Trazado_2493" data-name="Trazado 2493" d="M728.658,535.721h.853v6.769h4.254v.788h-5.107Z" transform="translate(-632.497 -535.591)" fill="#003876"/>
      <path id="Trazado_2494" data-name="Trazado 2494" d="M739.167,535.667h.8l3.444,7.611h-.918l-.884-2h-4.114l-.9,2h-.874Zm2.1,4.847-1.716-3.853-1.727,3.853Z" transform="translate(-632.497 -535.591)" fill="#003876"/>
    </g>
    <g id="Grupo_3609" data-name="Grupo 3609">
      <rect id="Rectángulo_2023" data-name="Rectángulo 2023" width="1.624" height="5.987" rx="0.31" transform="translate(26.923 8.715)" fill="#003876"/>
      <rect id="Rectángulo_2024" data-name="Rectángulo 2024" width="1.624" height="5.987" rx="0.31" transform="translate(29.535 8.715)" fill="#003876"/>
      <rect id="Rectángulo_2025" data-name="Rectángulo 2025" width="1.624" height="5.987" rx="0.31" transform="translate(24.296 8.715)" fill="#003876"/>
      <rect id="Rectángulo_2026" data-name="Rectángulo 2026" width="10.669" height="0.74" rx="0.172" transform="translate(22.389 7.537)" fill="#003876"/>
      <path id="Trazado_2495" data-name="Trazado 2495" d="M669.333,493.211c.337.249.723.546,1.149.9a28.347,28.347,0,0,1,2.565,2.443,30.153,30.153,0,0,1,5.145,7.669,31.314,31.314,0,0,1,1.642,4.013,31.822,31.822,0,0,1,1.181,4.215c.5,2.49.75,5.282.75,5.282h3.822l-.007-.062.149.056V517.7a28.545,28.545,0,0,0-17.823-25.412l-.039-.016a9.532,9.532,0,0,1,.844.516C668.9,492.911,669.112,493.058,669.333,493.211Z" transform="translate(-631.762 -475.391)" fill="#003876"/>
      <path id="Trazado_2496" data-name="Trazado 2496" d="M679.185,517.654c-.025-.286-.067-.565-.1-.849A33,33,0,0,0,676.9,507.4a24.75,24.75,0,0,0-1.3-2.741c-.138-.247-.283-.481-.425-.719A23.84,23.84,0,0,0,664.1,493.144l0,0-.018-.011.032.042a18.59,18.59,0,0,1,2.444,3.045A35.914,35.914,0,0,1,672,512.24a36.285,36.285,0,0,1,.241,4.231c.013.376.027.989.032,1.2l-.015.077.795,0,6.109-.018v-.005h.033Z" transform="translate(-631.762 -475.391)" fill="#003876"/>
      <path id="Trazado_2497" data-name="Trazado 2497" d="M663.492,482.384a4.083,4.083,0,0,0-3.927-4.128v-.675h1.085v-.117l0,0v-.4a.037.037,0,0,0-.037-.036h-.161a.037.037,0,0,0-.037.036v.394h-.853v-1.544h.023a.046.046,0,0,0,.046-.046v-.427a.047.047,0,0,0-.046-.047H659.4a.046.046,0,0,0-.046.047v.427a.045.045,0,0,0,.046.046h.027v1.544h-.864v-.394a.037.037,0,0,0-.037-.036h-.161a.036.036,0,0,0-.037.036v.4l0,0v.118h1.1v.676A4.084,4.084,0,0,0,655.5,482.4v.019h7.99Z" transform="translate(-631.762 -475.391)" fill="#003876"/>
      <rect id="Rectángulo_2027" data-name="Rectángulo 2027" width="10.669" height="0.74" rx="0.172" transform="translate(22.389 15.333)" fill="#003876"/>
      <path id="Trazado_2498" data-name="Trazado 2498" d="M660.957,493.712l-.11-.094,0,24.11,8.844.031s0-.25,0-.375C669.691,507.1,666.149,498.18,660.957,493.712Z" transform="translate(-631.762 -475.391)" fill="#003876"/>
      <rect id="Rectángulo_2028" data-name="Rectángulo 2028" width="2.957" height="2.955" rx="0.31" transform="translate(47.166 46.032)" fill="#003876"/>
      <rect id="Rectángulo_2029" data-name="Rectángulo 2029" width="2.958" height="2.958" rx="0.31" transform="translate(14.809 46.029)" fill="#003876"/>
      <rect id="Rectángulo_2030" data-name="Rectángulo 2030" width="2.957" height="2.955" rx="0.31" transform="translate(37.719 46.032)" fill="#003876"/>
      <rect id="Rectángulo_2031" data-name="Rectángulo 2031" width="2.958" height="2.958" rx="0.31" transform="translate(26.263 46.029)" fill="#003876"/>
      <path id="Trazado_2499" data-name="Trazado 2499" d="M687.088,519.7h-.134l0,0h-5.065v-.88a.259.259,0,0,0-.259-.259h-2.438a.259.259,0,0,0-.259.259v.88h-6.49v-.88a.259.259,0,0,0-.26-.259h-2.438a.259.259,0,0,0-.259.259v.88h-8.5v-.885a.259.259,0,0,0-.259-.259h-2.439a.259.259,0,0,0-.259.259v.885h-8.5v-.885a.259.259,0,0,0-.259-.259h-2.439a.259.259,0,0,0-.259.259v.885h-6.492v-.885a.259.259,0,0,0-.26-.259h-2.438a.26.26,0,0,0-.26.259v.885h-5.042l0,0h-.14a.172.172,0,0,0-.172.172v.464a.172.172,0,0,0,.172.172h55.154a.173.173,0,0,0,.173-.172v-.464A.173.173,0,0,0,687.088,519.7Z" transform="translate(-631.762 -475.391)" fill="#003876"/>
      <rect id="Rectángulo_2032" data-name="Rectángulo 2032" width="2.958" height="2.958" rx="0.31" transform="translate(5.359 46.029)" fill="#003876"/>
      <path id="Trazado_2500" data-name="Trazado 2500" d="M658.178,517.742l0-24.117-.11.093c-5.192,4.469-8.733,13.4-8.733,23.679,0,.126,0,.375,0,.375Z" transform="translate(-631.762 -475.391)" fill="#003876"/>
      <path id="Trazado_2501" data-name="Trazado 2501" d="M633.437,517.743h1.435l1.347.005v-.005h1.039s.252-2.793.75-5.285a37.837,37.837,0,0,1,2.822-8.23,30.136,30.136,0,0,1,5.146-7.67,28.19,28.19,0,0,1,2.564-2.444c.425-.351.811-.647,1.148-.9.222-.154.436-.3.624-.43a9.523,9.523,0,0,1,.844-.516l-.039.016A28.552,28.552,0,0,0,633.3,517.708v.029h.142Z" transform="translate(-631.762 -475.391)" fill="#003876"/>
      <path id="Trazado_2502" data-name="Trazado 2502" d="M652.465,496.231a18.536,18.536,0,0,1,2.443-3.046l.032-.043-.017.011,0,0a23.845,23.845,0,0,0-11.077,10.8c-.142.238-.287.472-.425.719a24.94,24.94,0,0,0-1.295,2.741,32.985,32.985,0,0,0-2.191,9.41c-.032.284-.074.564-.1.85l-.005.066h.032v0l5.918.018.985,0-.015-.078c.005-.207.019-.821.032-1.2a36.657,36.657,0,0,1,.241-4.232A35.915,35.915,0,0,1,652.465,496.231Z" transform="translate(-631.762 -475.391)" fill="#003876"/>
      <rect id="Rectángulo_2033" data-name="Rectángulo 2033" width="55.498" height="1.917" rx="0.31" transform="translate(0 49.683)" fill="#003876"/>
    </g>
    <path id="Trazado_2503" data-name="Trazado 2503" d="M687,572.71H631.8v-3H687" transform="translate(-631.762 -475.391)" fill="#003876"/>
  </g>
</svg>
