<svg id="Grupo_3826" data-name="Grupo 3826" xmlns="http://www.w3.org/2000/svg" width="73.887" height="26.091" viewBox="0 0 73.887 26.091">
  <g id="Grupo_3827" data-name="Grupo 3827" transform="translate(0 2.746)">
    <g id="Grupo_3826-2" data-name="Grupo 3826">
      <path id="Trazado_2614" data-name="Trazado 2614" d="M500.176,767.726a5.733,5.733,0,0,1-2.252-2.25,6.744,6.744,0,0,1-.818-3.359,6.6,6.6,0,0,1,.839-3.36,5.836,5.836,0,0,1,2.295-2.251,7.028,7.028,0,0,1,6.494,0,5.835,5.835,0,0,1,2.3,2.25,6.6,6.6,0,0,1,.841,3.359,6.471,6.471,0,0,1-.861,3.359,5.971,5.971,0,0,1-2.329,2.252,6.78,6.78,0,0,1-3.28.8A6.543,6.543,0,0,1,500.176,767.726ZM505,765.373a3.018,3.018,0,0,0,1.2-1.244,4.193,4.193,0,0,0,.447-2.015,3.735,3.735,0,0,0-.93-2.721,3.056,3.056,0,0,0-2.273-.951,2.986,2.986,0,0,0-2.251.952,3.8,3.8,0,0,0-.906,2.722,3.847,3.847,0,0,0,.885,2.72,2.908,2.908,0,0,0,2.229.951A3.263,3.263,0,0,0,505,765.373Z" transform="translate(-497.106 -751.046)" fill="#231f20"/>
      <path id="Trazado_2615" data-name="Trazado 2615" d="M519.515,756.208a4.5,4.5,0,0,1,1.658,1.422v-1.917h3.158l0,12.222a8.584,8.584,0,0,1-.694,3.51,5.149,5.149,0,0,1-2.082,2.151,6.667,6.667,0,0,1-3.359.8,7.179,7.179,0,0,1-4.334-1.231,4.564,4.564,0,0,1-1.915-3.358h3.113a2.31,2.31,0,0,0,1.064,1.354,3.7,3.7,0,0,0,1.982.5,3.07,3.07,0,0,0,2.217-.819,4.449,4.449,0,0,0,.85-2.905v-1.5a4.764,4.764,0,0,1-1.668,1.456,4.978,4.978,0,0,1-2.429.583,5.331,5.331,0,0,1-2.867-.8,5.624,5.624,0,0,1-2.05-2.273,7.3,7.3,0,0,1-.751-3.37,7.185,7.185,0,0,1,.749-3.337,5.5,5.5,0,0,1,2.038-2.24,5.428,5.428,0,0,1,2.877-.785A5.216,5.216,0,0,1,519.515,756.208Zm1.211,3.9a3.158,3.158,0,0,0-1.21-1.254,3.225,3.225,0,0,0-1.635-.436,3.17,3.17,0,0,0-1.612.426,3.2,3.2,0,0,0-1.2,1.243,3.9,3.9,0,0,0-.459,1.937,4.034,4.034,0,0,0,.46,1.96,3.3,3.3,0,0,0,1.21,1.287,3.067,3.067,0,0,0,1.6.447,3.237,3.237,0,0,0,1.635-.437,3.163,3.163,0,0,0,1.209-1.254,4.514,4.514,0,0,0,0-3.919Z" transform="translate(-497.106 -751.046)" fill="#231f20"/>
      <path id="Trazado_2616" data-name="Trazado 2616" d="M531.422,758.479v6a1.181,1.181,0,0,0,.3.906,1.482,1.482,0,0,0,1.019.28H534.2v2.642h-1.97q-3.965,0-3.965-3.851l0-5.979h-1.708v-2.723h1.708v-3.125h3.158v3.125H534.2v2.723Z" transform="translate(-497.106 -751.046)" fill="#231f20"/>
      <path id="Trazado_2617" data-name="Trazado 2617" d="M540.209,755.753l0,12.555h-3.136l0-12.554Zm0-1.568v-3.139h-3.138v3.138Z" transform="translate(-497.106 -751.046)" fill="#231f20"/>
      <path id="Trazado_2618" data-name="Trazado 2618" d="M543.432,758.733a5.692,5.692,0,0,1,2.243-2.24,6.652,6.652,0,0,1,3.283-.8,6.456,6.456,0,0,1,3.942,1.152,5.6,5.6,0,0,1,2.094,3.236H551.5a2.479,2.479,0,0,0-.937-1.266,2.787,2.787,0,0,0-1.63-.458,2.7,2.7,0,0,0-2.2.975,5.094,5.094,0,0,0,0,5.509,2.705,2.705,0,0,0,2.2.973,2.452,2.452,0,0,0,2.566-1.7h3.492a5.715,5.715,0,0,1-2.1,3.2,6.346,6.346,0,0,1-3.931,1.188,6.667,6.667,0,0,1-3.283-.794,5.69,5.69,0,0,1-2.243-2.239,7.422,7.422,0,0,1,0-6.741Z" transform="translate(-497.106 -751.046)" fill="#231f20"/>
    </g>
  </g>
  <g id="Grupo_3830" data-name="Grupo 3830" transform="translate(61.528)">
    <g id="Grupo_3829" data-name="Grupo 3829">
      <g id="Grupo_3828" data-name="Grupo 3828">
        <path id="Trazado_2619" data-name="Trazado 2619" d="M560,747.805h3.25l-1.625,2.815L560,753.434l-1.624-2.814-1.625-2.815Z" transform="translate(-556.748 -747.805)" fill="#0064ce"/>
        <path id="Trazado_2620" data-name="Trazado 2620" d="M559.667,753.234" transform="translate(-556.748 -747.805)" fill="#213970"/>
        <path id="Trazado_2621" data-name="Trazado 2621" d="M569.106,758.085,560,753.434l2.487,4.652h6.622Z" transform="translate(-556.748 -747.805)" fill="#6bdb00"/>
        <path id="Trazado_2622" data-name="Trazado 2622" d="M562.276,757.664Z" transform="translate(-556.748 -747.805)" fill="#ffba00"/>
        <path id="Trazado_2623" data-name="Trazado 2623" d="M562.276,757.664Z" transform="translate(-556.748 -747.805)" fill="#ffba00"/>
        <path id="Trazado_2624" data-name="Trazado 2624" d="M562.276,757.664Z" transform="translate(-556.748 -747.805)" fill="#ffba00"/>
        <path id="Trazado_2625" data-name="Trazado 2625" d="M562.276,757.664Z" transform="translate(-556.748 -747.805)" fill="#ffba00"/>
        <line id="Línea_89" data-name="Línea 89" transform="translate(2.92 5.429)" fill="#00adca"/>
        <path id="Trazado_2626" data-name="Trazado 2626" d="M563.248,747.805,560,753.434l9.109,4.652Z" transform="translate(-556.748 -747.805)" fill="#00adca"/>
        <path id="Trazado_2627" data-name="Trazado 2627" d="M560,768.366h3.25l-1.625-2.815L560,762.737l-1.624,2.814-1.625,2.815Z" transform="translate(-556.748 -747.805)" fill="#ed2024"/>
        <path id="Trazado_2628" data-name="Trazado 2628" d="M569.106,758.085,560,762.737l2.487-4.652h6.622Z" transform="translate(-556.748 -747.805)" fill="#ffba00"/>
        <path id="Trazado_2629" data-name="Trazado 2629" d="M563.248,768.366,560,762.737l9.109-4.652Z" transform="translate(-556.748 -747.805)" fill="#ff6900"/>
      </g>
    </g>
  </g>
</svg>
