<svg xmlns="http://www.w3.org/2000/svg" width="74.254" height="72.821" viewBox="0 0 74.254 72.821">
  <g id="sellos_A5" transform="translate(1.576 1.605)">
    <g id="Grupo_5435" data-name="Grupo 5435" transform="translate(0 0)">
      <ellipse id="Elipse_202" data-name="Elipse 202" cx="35.541" cy="35.526" rx="35.541" ry="35.526" transform="translate(0)" fill="#e6e7e8"/>
      <path id="Trazado_4550" data-name="Trazado 4550" d="M109.366,151.342a32.132,32.132,0,1,1,43.165,16.224" transform="translate(-103.276 -103.006)" fill="none" stroke="#e9c248" stroke-linecap="round" stroke-miterlimit="10" stroke-width="10"/>
    </g>
    <g id="Grupo_5399" data-name="Grupo 5399" transform="translate(22.497 43.168)">
      <g id="Grupo_5398" data-name="Grupo 5398">
        <g id="Grupo_5396" data-name="Grupo 5396" transform="translate(0 0.523)">
          <rect id="Rectángulo_2662" data-name="Rectángulo 2662" width="25.23" height="0.286" fill="#e9c248"/>
        </g>
        <g id="Grupo_5397" data-name="Grupo 5397" transform="translate(11.939)">
          <path id="Trazado_4559" data-name="Trazado 4559" d="M422.042,510.271a.671.671,0,1,1-.671-.671A.678.678,0,0,1,422.042,510.271Z" transform="translate(-420.7 -509.6)" fill="#e9c248"/>
        </g>
      </g>
    </g>
    <g id="Grupo_5395" data-name="Grupo 5395" transform="translate(22.497 17.169)">
      <g id="Grupo_5392" data-name="Grupo 5392" transform="translate(1.095)">
        <path id="Trazado_4551" data-name="Trazado 4551" d="M315.171,246.8v4.726h-1.312l-1.746-2.644v2.644H310.8V246.8h1.312l1.746,2.674V246.8Z" transform="translate(-310.8 -246.731)" fill="#e9c248"/>
        <path id="Trazado_4552" data-name="Trazado 4552" d="M360.527,250.945a2.422,2.422,0,1,1,2.417-2.427A2.377,2.377,0,0,1,360.527,250.945Zm0-1.224a1.216,1.216,0,1,0-1.085-1.2A1.066,1.066,0,0,0,360.527,249.721Z" transform="translate(-353.433 -246.1)" fill="#e9c248"/>
        <path id="Trazado_4553" data-name="Trazado 4553" d="M412.262,246.8c1.174,0,1.766.671,1.766,1.52a1.375,1.375,0,0,1-1.036,1.372l1.066,1.845h-1.47l-.937-1.746h-.138v1.746H410.2V246.81h2.062Zm-.1,1.1h-.651v.987h.651c.355,0,.533-.178.533-.493A.468.468,0,0,0,412.164,247.9Z" transform="translate(-400.392 -246.731)" fill="#e9c248"/>
        <path id="Trazado_4554" data-name="Trazado 4554" d="M449.4,246.8h3.828v1.046h-1.263v3.68h-1.322v-3.68H449.4Z" transform="translate(-435.724 -246.731)" fill="#e9c248"/>
        <path id="Trazado_4555" data-name="Trazado 4555" d="M490,246.8h1.312v4.726H490Z" transform="translate(-472.318 -246.731)" fill="#e9c248"/>
        <path id="Trazado_4556" data-name="Trazado 4556" d="M508.558,246.3a2.187,2.187,0,0,1,2.27,1.756h-1.411a.926.926,0,0,0-.868-.553c-.6,0-1,.474-1,1.194s.395,1.2,1,1.2a.926.926,0,0,0,.868-.553h1.411a2.179,2.179,0,0,1-2.27,1.756,2.4,2.4,0,0,1,0-4.805Z" transform="translate(-486.92 -246.28)" fill="#e9c248"/>
      </g>
      <g id="Grupo_5394" data-name="Grupo 5394" transform="translate(0 8.357)">
        <g id="Grupo_5393" data-name="Grupo 5393">
          <path id="Trazado_4557" data-name="Trazado 4557" d="M309.952,348.545h-5.19l-.789,2.388H299.7l5.338-14.633h4.687l5.318,14.633h-4.292Zm-2.6-7.844-1.549,4.726h3.138Z" transform="translate(-299.7 -335.757)" fill="#e9c248"/>
          <path id="Trazado_4558" data-name="Trazado 4558" d="M460.305,330.8v3.592h-6.226v2.3a3.657,3.657,0,0,1,2.6-.908c3.138,0,4.46,2.408,4.46,4.934,0,3.256-1.934,5.249-5.249,5.249-3.523,0-5.565-1.954-5.585-4.667h3.957a1.318,1.318,0,0,0,1.45,1.184c1.016,0,1.48-.77,1.48-1.825,0-1.1-.562-1.658-1.539-1.658a1.212,1.212,0,0,0-1.312.977h-3.957V330.81l9.926-.01Z" transform="translate(-435.44 -330.8)" fill="#e9c248"/>
        </g>
      </g>
    </g>
  </g>
</svg>
