<svg xmlns="http://www.w3.org/2000/svg" width="74.239" height="72.829" viewBox="0 0 74.239 72.829">
  <g id="sellos_B1" transform="translate(1.579 1.607)">
    <g id="Grupo_5438" data-name="Grupo 5438" transform="translate(0 0)">
      <ellipse id="Elipse_205" data-name="Elipse 205" cx="35.531" cy="35.526" rx="35.531" ry="35.526" transform="translate(0)" fill="#e6e7e8"/>
      <path id="Trazado_4580" data-name="Trazado 4580" d="M109.365,151.347a32.123,32.123,0,1,1,43.155,16.226" transform="translate(-103.279 -103.008)" fill="none" stroke="#C0C0C0" stroke-linecap="round" stroke-miterlimit="10" stroke-width="10"/>
    </g>
    <g id="Grupo_5423" data-name="Grupo 5423" transform="translate(22.481 43.188)">
      <g id="Grupo_5422" data-name="Grupo 5422">
        <g id="Grupo_5420" data-name="Grupo 5420" transform="translate(0 0.523)">
          <rect id="Rectángulo_2665" data-name="Rectángulo 2665" width="25.213" height="0.286" fill="#C0C0C0"/>
        </g>
        <g id="Grupo_5421" data-name="Grupo 5421" transform="translate(11.931)">
          <path id="Trazado_4589" data-name="Trazado 4589" d="M422.041,510.271a.671.671,0,1,1-.671-.671A.678.678,0,0,1,422.041,510.271Z" transform="translate(-420.7 -509.6)" fill="#C0C0C0"/>
        </g>
      </g>
    </g>
    <g id="Grupo_5419" data-name="Grupo 5419" transform="translate(23.576 16.96)">
      <g id="Grupo_5416" data-name="Grupo 5416">
        <path id="Trazado_4581" data-name="Trazado 4581" d="M315.168,244.8v4.723h-1.311l-1.745-2.643v2.643H310.8V244.8h1.311l1.745,2.672V244.8Z" transform="translate(-310.8 -244.731)" fill="#C0C0C0"/>
        <path id="Trazado_4582" data-name="Trazado 4582" d="M360.526,248.941a2.421,2.421,0,1,1,2.416-2.426A2.375,2.375,0,0,1,360.526,248.941Zm0-1.223a1.215,1.215,0,1,0-1.085-1.2A1.065,1.065,0,0,0,360.526,247.719Z" transform="translate(-353.436 -244.1)" fill="#C0C0C0"/>
        <path id="Trazado_4583" data-name="Trazado 4583" d="M412.261,244.8c1.173,0,1.765.671,1.765,1.518a1.374,1.374,0,0,1-1.035,1.371l1.065,1.844h-1.469l-.937-1.745h-.138v1.745H410.2V244.81h2.061Zm-.1,1.094h-.651v.986h.651c.355,0,.532-.177.532-.493A.468.468,0,0,0,412.162,245.894Z" transform="translate(-400.399 -244.731)" fill="#C0C0C0"/>
        <path id="Trazado_4584" data-name="Trazado 4584" d="M449.4,244.8h3.826v1.045h-1.262v3.678h-1.321v-3.678H449.4Z" transform="translate(-435.734 -244.731)" fill="#C0C0C0"/>
        <path id="Trazado_4585" data-name="Trazado 4585" d="M490,244.8h1.311v4.723H490Z" transform="translate(-472.331 -244.731)" fill="#C0C0C0"/>
        <path id="Trazado_4586" data-name="Trazado 4586" d="M508.557,244.3a2.185,2.185,0,0,1,2.268,1.755h-1.41a.926.926,0,0,0-.868-.552c-.6,0-1,.473-1,1.193s.394,1.2,1,1.2a.926.926,0,0,0,.868-.552h1.41a2.178,2.178,0,0,1-2.268,1.755,2.4,2.4,0,0,1,0-4.8Z" transform="translate(-486.933 -244.28)" fill="#C0C0C0"/>
      </g>
      <g id="Grupo_5418" data-name="Grupo 5418" transform="translate(0.996 7.297)">
        <g id="Grupo_5417" data-name="Grupo 5417">
          <path id="Trazado_4587" data-name="Trazado 4587" d="M328.709,339.786H320.9V324h7.563c3.2,0,5.167,1.479,5.167,4.092a3.515,3.515,0,0,1-2.662,3.579,3.815,3.815,0,0,1,3.017,3.806C333.985,338.149,332.091,339.786,328.709,339.786Zm-1.213-12.3h-2.219v2.771H327.5c1.075,0,1.657-.444,1.657-1.361C329.153,327.964,328.571,327.491,327.5,327.491Zm.316,5.887h-2.534v2.869h2.554c1.094,0,1.657-.444,1.657-1.39S328.887,333.377,327.812,333.377Z" transform="translate(-320.9 -323.418)" fill="#C0C0C0"/>
          <path id="Trazado_4588" data-name="Trazado 4588" d="M466.807,322.222H464.5V318.1h6.892v16.358h-4.585V322.222Z" transform="translate(-450.341 -318.1)" fill="#C0C0C0"/>
        </g>
      </g>
    </g>
  </g>
</svg>
