<svg xmlns="http://www.w3.org/2000/svg" width="74.32" height="72.815" viewBox="0 0 74.32 72.815">
  <g id="sellos_A7" transform="translate(1.574 1.604)">
    <g id="Grupo_5437" data-name="Grupo 5437" transform="translate(0 0)">
      <ellipse id="Elipse_204" data-name="Elipse 204" cx="35.576" cy="35.526" rx="35.576" ry="35.526" transform="translate(0)" fill="#e6e7e8"/>
      <path id="Trazado_4570" data-name="Trazado 4570" d="M109.368,151.338a32.169,32.169,0,1,1,43.209,16.223" transform="translate(-103.274 -103.004)" fill="none" stroke="#e05d56" stroke-linecap="round" stroke-miterlimit="10" stroke-width="10"/>
    </g>
    <g id="Grupo_5415" data-name="Grupo 5415" transform="translate(22.509 43.153)">
      <g id="Grupo_5414" data-name="Grupo 5414" transform="translate(0 0)">
        <g id="Grupo_5412" data-name="Grupo 5412" transform="translate(0 0.523)">
          <rect id="Rectángulo_2664" data-name="Rectángulo 2664" width="25.244" height="0.286" fill="#e05d56"/>
        </g>
        <g id="Grupo_5413" data-name="Grupo 5413" transform="translate(11.946)">
          <path id="Trazado_4579" data-name="Trazado 4579" d="M422.043,510.271a.671.671,0,1,1-.671-.671A.678.678,0,0,1,422.043,510.271Z" transform="translate(-420.7 -509.6)" fill="#e05d56"/>
        </g>
      </g>
    </g>
    <g id="Grupo_5411" data-name="Grupo 5411" transform="translate(22.529 17.079)">
      <g id="Grupo_5408" data-name="Grupo 5408" transform="translate(1.076)">
        <path id="Trazado_4571" data-name="Trazado 4571" d="M315.174,245.8v4.729H313.86l-1.747-2.646v2.646H310.8V245.8h1.313l1.747,2.675V245.8Z" transform="translate(-310.8 -245.731)" fill="#e05d56"/>
        <path id="Trazado_4572" data-name="Trazado 4572" d="M360.529,249.947a2.424,2.424,0,1,1,2.419-2.429A2.378,2.378,0,0,1,360.529,249.947Zm0-1.224a1.216,1.216,0,1,0-1.086-1.2A1.067,1.067,0,0,0,360.529,248.723Z" transform="translate(-353.43 -245.1)" fill="#e05d56"/>
        <path id="Trazado_4573" data-name="Trazado 4573" d="M412.263,245.8c1.175,0,1.767.671,1.767,1.52a1.376,1.376,0,0,1-1.037,1.372l1.066,1.846h-1.471l-.938-1.747h-.138v1.747H410.2V245.81h2.063Zm-.1,1.1h-.652v.987h.652c.355,0,.533-.178.533-.494A.469.469,0,0,0,412.165,246.9Z" transform="translate(-400.387 -245.731)" fill="#e05d56"/>
        <path id="Trazado_4574" data-name="Trazado 4574" d="M449.4,245.8h3.831v1.046h-1.264v3.682h-1.323v-3.682H449.4Z" transform="translate(-435.717 -245.731)" fill="#e05d56"/>
        <path id="Trazado_4575" data-name="Trazado 4575" d="M490,245.8h1.313v4.729H490Z" transform="translate(-472.309 -245.731)" fill="#e05d56"/>
        <path id="Trazado_4576" data-name="Trazado 4576" d="M508.559,245.3a2.188,2.188,0,0,1,2.271,1.757h-1.412a.927.927,0,0,0-.869-.553c-.6,0-1,.474-1,1.195s.395,1.2,1,1.2a.927.927,0,0,0,.869-.553h1.412a2.181,2.181,0,0,1-2.271,1.757,2.4,2.4,0,0,1,0-4.808Z" transform="translate(-486.909 -245.28)" fill="#e05d56"/>
      </g>
      <g id="Grupo_5410" data-name="Grupo 5410" transform="translate(0 8.194)">
        <g id="Grupo_5409" data-name="Grupo 5409">
          <path id="Trazado_4577" data-name="Trazado 4577" d="M310.325,345.949h-5.282l-.8,2.429H299.9l5.42-14.878h4.768l5.4,14.878h-4.374Zm-2.646-7.977-1.58,4.808h3.189Z" transform="translate(-299.9 -332.967)" fill="#e05d56"/>
          <path id="Trazado_4578" data-name="Trazado 4578" d="M461.908,328.1v3.06l-5.065,12.351H452.6l5.114-11.867H451.7V328.1Z" transform="translate(-436.714 -328.1)" fill="#e05d56"/>
        </g>
      </g>
    </g>
  </g>
</svg>
