<svg xmlns="http://www.w3.org/2000/svg" width="74.192" height="72.832" viewBox="0 0 74.192 72.832">
  <g id="sellos_A3" transform="translate(1.58 1.608)">
    <g id="Grupo_5433" data-name="Grupo 5433" transform="translate(0 0)">
      <ellipse id="Elipse_200" data-name="Elipse 200" cx="35.507" cy="35.526" rx="35.507" ry="35.526" transform="translate(0)" fill="#e6e7e8"/>
      <path id="Trazado_4530" data-name="Trazado 4530" d="M109.363,151.349a32.1,32.1,0,1,1,43.123,16.227" transform="translate(-103.279 -103.009)" fill="none" stroke="#00844d" stroke-linecap="round" stroke-miterlimit="10" stroke-width="10"/>
    </g>
    <g id="Grupo_5383" data-name="Grupo 5383" transform="translate(21.884 43.176)">
      <g id="Grupo_5382" data-name="Grupo 5382">
        <g id="Grupo_5380" data-name="Grupo 5380" transform="translate(0 0.542)">
          <rect id="Rectángulo_2660" data-name="Rectángulo 2660" width="25.797" height="0.286" fill="#00844d"/>
        </g>
        <g id="Grupo_5381" data-name="Grupo 5381" transform="translate(12.223)">
          <path id="Trazado_4539" data-name="Trazado 4539" d="M419.06,510.28a.68.68,0,1,1-.68-.68A.682.682,0,0,1,419.06,510.28Z" transform="translate(-417.7 -509.6)" fill="#00844d"/>
        </g>
      </g>
    </g>
    <g id="Grupo_5379" data-name="Grupo 5379" transform="translate(21.884 17.448)">
      <g id="Grupo_5376" data-name="Grupo 5376" transform="translate(1.686)">
        <path id="Trazado_4531" data-name="Trazado 4531" d="M315.167,249.8v4.722h-1.311l-1.745-2.642v2.642H310.8V249.8h1.311l1.745,2.671V249.8Z" transform="translate(-310.8 -249.731)" fill="#00844d"/>
        <path id="Trazado_4532" data-name="Trazado 4532" d="M360.525,253.94a2.42,2.42,0,1,1,2.415-2.425A2.374,2.374,0,0,1,360.525,253.94Zm0-1.222a1.215,1.215,0,1,0-1.084-1.2A1.065,1.065,0,0,0,360.525,252.718Z" transform="translate(-353.437 -249.1)" fill="#00844d"/>
        <path id="Trazado_4533" data-name="Trazado 4533" d="M412.26,249.8c1.173,0,1.765.67,1.765,1.518a1.374,1.374,0,0,1-1.035,1.37l1.065,1.843h-1.469l-.936-1.745h-.138v1.745H410.2V249.81h2.06Zm-.1,1.094h-.651v.986h.651c.355,0,.532-.177.532-.493A.468.468,0,0,0,412.162,250.894Z" transform="translate(-400.402 -249.731)" fill="#00844d"/>
        <path id="Trazado_4534" data-name="Trazado 4534" d="M449.4,249.8h3.825v1.045h-1.262v3.677h-1.321v-3.677H449.4Z" transform="translate(-435.738 -249.731)" fill="#00844d"/>
        <path id="Trazado_4535" data-name="Trazado 4535" d="M490,249.8h1.311v4.722H490Z" transform="translate(-472.336 -249.731)" fill="#00844d"/>
        <path id="Trazado_4536" data-name="Trazado 4536" d="M508.556,249.3a2.184,2.184,0,0,1,2.267,1.755h-1.41a.925.925,0,0,0-.867-.552c-.6,0-1,.473-1,1.193s.394,1.2,1,1.2a.925.925,0,0,0,.867-.552h1.41a2.177,2.177,0,0,1-2.267,1.755,2.4,2.4,0,0,1,0-4.8Z" transform="translate(-486.938 -249.28)" fill="#00844d"/>
      </g>
      <g id="Grupo_5378" data-name="Grupo 5378" transform="translate(0 6.999)">
        <g id="Grupo_5377" data-name="Grupo 5377">
          <path id="Trazado_4537" data-name="Trazado 4537" d="M304.3,341.867h-5.362l-.818,2.464H293.7l5.52-15.131h4.85l5.491,15.131h-4.446Zm-2.681-8.113-1.607,4.889h3.243Z" transform="translate(-293.7 -328.303)" fill="#00844d"/>
          <path id="Trazado_4538" data-name="Trazado 4538" d="M453.219,320.1c3.391,0,5.195,1.912,5.195,4.318a3.475,3.475,0,0,1-2.316,3.5v.089a3.667,3.667,0,0,1,2.592,3.687c0,2.7-1.932,4.574-5.234,4.574-3.391,0-5.776-1.548-5.855-5.284h4.1c-.039,1.114.473,1.8,1.587,1.8a1.287,1.287,0,0,0,1.331-1.419c0-1.074-.641-1.587-2.228-1.587h-.749v-3.411h.729c.818.02,1.952-.108,1.952-1.439,0-.9-.493-1.331-1.2-1.331-.927,0-1.2.8-1.242,1.528h-4.1C447.876,321.884,449.877,320.1,453.219,320.1Z" transform="translate(-432.429 -320.1)" fill="#00844d"/>
        </g>
      </g>
    </g>
  </g>
</svg>
