<svg xmlns="http://www.w3.org/2000/svg" width="74.628" height="73.205" viewBox="0 0 74.628 73.205">
  <g id="sellos_A4" transform="translate(1.832 1.925)">
    <g id="Grupo_5434" data-name="Grupo 5434" transform="translate(0 0)">
      <circle id="Elipse_201" data-name="Elipse 201" cx="35.526" cy="35.526" r="35.526" fill="#e6e7e8"/>
      <path id="Trazado_4540" data-name="Trazado 4540" d="M109.381,151.624A32.317,32.317,0,1,1,152.8,167.949" transform="translate(-103.532 -103.326)" fill="none" stroke="#6d335a" stroke-linecap="round" stroke-miterlimit="10" stroke-width="10"/>
    </g>
    <g id="Grupo_5391" data-name="Grupo 5391" transform="translate(22.334 43.114)">
      <g id="Grupo_5390" data-name="Grupo 5390">
        <g id="Grupo_5388" data-name="Grupo 5388" transform="translate(0 0.526)">
          <rect id="Rectángulo_2661" data-name="Rectángulo 2661" width="25.392" height="0.288" fill="#6d335a"/>
        </g>
        <g id="Grupo_5389" data-name="Grupo 5389" transform="translate(12.016)">
          <path id="Trazado_4549" data-name="Trazado 4549" d="M422.051,510.275a.675.675,0,1,1-.675-.675A.683.683,0,0,1,422.051,510.275Z" transform="translate(-420.7 -509.6)" fill="#6d335a"/>
        </g>
      </g>
    </g>
    <g id="Grupo_5387" data-name="Grupo 5387" transform="translate(21.867 17.245)">
      <g id="Grupo_5384" data-name="Grupo 5384" transform="translate(1.569)">
        <path id="Trazado_4541" data-name="Trazado 4541" d="M315.2,249.8v4.757h-1.321l-1.758-2.661v2.661H310.8V249.8h1.321l1.758,2.691V249.8Z" transform="translate(-310.8 -249.73)" fill="#6d335a"/>
        <path id="Trazado_4542" data-name="Trazado 4542" d="M360.543,253.976a2.438,2.438,0,1,1,2.433-2.443A2.392,2.392,0,0,1,360.543,253.976Zm0-1.231a1.224,1.224,0,1,0-1.092-1.212A1.073,1.073,0,0,0,360.543,252.745Z" transform="translate(-353.403 -249.1)" fill="#6d335a"/>
        <path id="Trazado_4543" data-name="Trazado 4543" d="M412.276,249.8c1.182,0,1.778.675,1.778,1.529a1.384,1.384,0,0,1-1.043,1.38l1.073,1.857H412.6l-.943-1.758h-.139v1.758H410.2V249.81h2.075Zm-.1,1.1h-.655v.993h.655c.357,0,.536-.179.536-.5A.471.471,0,0,0,412.176,250.9Z" transform="translate(-400.329 -249.73)" fill="#6d335a"/>
        <path id="Trazado_4544" data-name="Trazado 4544" d="M449.4,249.8h3.853v1.053h-1.271v3.7h-1.331v-3.7H449.4Z" transform="translate(-435.636 -249.73)" fill="#6d335a"/>
        <path id="Trazado_4545" data-name="Trazado 4545" d="M490,249.8h1.321v4.757H490Z" transform="translate(-472.205 -249.73)" fill="#6d335a"/>
        <path id="Trazado_4546" data-name="Trazado 4546" d="M508.573,249.3a2.2,2.2,0,0,1,2.284,1.768h-1.42a.932.932,0,0,0-.874-.556c-.606,0-1,.477-1,1.2s.4,1.212,1,1.212a.932.932,0,0,0,.874-.556h1.42a2.193,2.193,0,0,1-2.284,1.768,2.418,2.418,0,0,1,0-4.836Z" transform="translate(-486.796 -249.28)" fill="#6d335a"/>
      </g>
      <g id="Grupo_5386" data-name="Grupo 5386" transform="translate(0 8.292)">
        <g id="Grupo_5385" data-name="Grupo 5385">
          <path id="Trazado_4547" data-name="Trazado 4547" d="M305.1,347.566H300l-.775,2.344H295l5.253-14.409h4.618l5.223,14.409h-4.23Zm-2.562-7.716-1.529,4.657H304.1Z" transform="translate(-295 -335.212)" fill="#6d335a"/>
          <path id="Trazado_4548" data-name="Trazado 4548" d="M449.324,344.864H442.7v-3.307l6.276-8.957h4.389v8.779h1.579v3.476h-1.579v2.453h-4.052l.01-2.443Zm.308-3.486v-4.27l-2.82,4.27Z" transform="translate(-428.033 -332.6)" fill="#6d335a"/>
        </g>
      </g>
    </g>
  </g>
</svg>
